<svg width="100" height="100" viewBox="0 0 100 100" fill="none" xmlns="http://www.w3.org/2000/svg">
<path d="M81.9585 33.9173C81.5879 32.4893 80.845 31.1853 79.8054 30.1384C78.7659 29.0916 77.4671 28.3395 76.0418 27.959C67.4004 26.9346 58.7013 26.4753 50.0001 26.584C41.2989 26.4753 32.5999 26.9346 23.9585 27.959C22.5331 28.3395 21.2343 29.0916 20.1948 30.1384C19.1553 31.1853 18.4123 32.4893 18.0418 33.9173C17.0958 39.2255 16.6356 44.6089 16.6668 50.0006C16.6329 55.4201 17.0931 60.8314 18.0418 66.1673C18.4315 67.5722 19.183 68.8503 20.2213 69.8739C21.2595 70.8976 22.5481 71.6309 23.9585 72.0006C32.5999 73.025 41.2989 73.4843 50.0001 73.3756C58.7013 73.4843 67.4004 73.025 76.0418 72.0006C77.4521 71.6309 78.7407 70.8976 79.779 69.8739C80.8172 68.8503 81.5687 67.5722 81.9585 66.1673C82.9072 60.8314 83.3674 55.4201 83.3335 50.0006C83.3646 44.6089 82.9044 39.2255 81.9585 33.9173ZM43.1668 59.959V40.1256L60.6251 50.0006L43.1668 59.9173V59.959Z" fill="#E9C5B5"/>
</svg>
